<svg xmlns="http://www.w3.org/2000/svg" xmlns:xlink="http://www.w3.org/1999/xlink" width="59" height="59" viewBox="0 0 59 59"><defs><path id="f1lja" d="M943.23 1619.58a28.91 28.91 0 1 1 0-57.83 28.91 28.91 0 0 1 0 57.83zm0-54.22a25.3 25.3 0 1 0 0 50.6 25.3 25.3 0 0 0 0-50.6zm18.07 27.11v-3.61h3.62v3.61zm-5.06 13l-2.56-2.56 2.56-2.55 2.55 2.55zm-2.03-28.77l2.5-2.5 2.5 2.5-2.5 2.5zm-12.79 32.03h3.62v3.62h-3.62zm1.8-16.22h-16.26a1.8 1.8 0 1 1 0-3.61h14.46v-18.11a1.8 1.8 0 1 1 3.62 0v19.92c0 1-.81 1.8-1.81 1.8zm-16.5-15.72l2.55-2.56 2.56 2.56-2.56 2.56zm4.76 26.22l-2.5 2.5-2.5-2.5 2.5-2.5z"/></defs><g><g transform="translate(-914 -1561)"><use fill="#b88b58" xlink:href="#f1lja"/></g></g></svg>