<svg xmlns="http://www.w3.org/2000/svg" xmlns:xlink="http://www.w3.org/1999/xlink" width="40" height="39" viewBox="0 0 40 39"><defs><path id="lju4a" d="M1497.6 857.63c.84.82 1.27 1.8 1.27 2.82 0 1.01-.42 2-1.24 2.85-.35.37-.71.72-1.07 1.06-.51.5-1 .97-1.43 1.49l-.04.04a6.2 6.2 0 0 1-5.26 2.02c-2.82-.18-5.34-1.24-7.23-2.14a38.69 38.69 0 0 1-12.88-10.09 35.4 35.4 0 0 1-6.3-10.49 14.42 14.42 0 0 1-1.04-6.1 6.02 6.02 0 0 1 1.78-3.82l2.8-2.82.01-.02c.82-.79 1.8-1.2 2.8-1.2 1 0 1.95.41 2.75 1.2.53.5 1.05 1.02 1.54 1.53l.77.78 2.24 2.25c1.73 1.72 1.73 3.96 0 5.69l-.69.7c-.6.61-1.23 1.25-1.9 1.87.5 1.1 1.19 2.2 2.22 3.5a28.23 28.23 0 0 0 6.76 6.17c.24.15.52.29.81.43l.64.33 2.6-2.59a3.96 3.96 0 0 1 2.8-1.26c1.03 0 1.99.44 2.79 1.27zm-1.57 1.56l-4.53-4.53-.02-.02c-.25-.28-.67-.6-1.18-.6-.52 0-.96.34-1.24.62l-2.81 2.8c-.14.15-.57.58-1.25.58-.27 0-.54-.07-.82-.21l-.1-.06c-.23-.15-.51-.29-.8-.43-.34-.17-.68-.34-1.02-.55a30.18 30.18 0 0 1-7.3-6.65 18.02 18.02 0 0 1-2.66-4.34l-.03-.07c-.15-.47-.28-1.16.43-1.87 0-.02.03-.03.04-.04.72-.64 1.37-1.3 2.06-2l.71-.71c.87-.88.87-1.68 0-2.55l-2.24-2.25-.78-.8c-.5-.51-.98-1-1.48-1.47l-.03-.02a1.76 1.76 0 0 0-1.2-.58c-.42 0-.84.2-1.25.59l-2.8 2.8a3.77 3.77 0 0 0-1.14 2.44c-.12 1.5.16 3.1.93 5.15a33.38 33.38 0 0 0 5.91 9.86 36.52 36.52 0 0 0 12.14 9.5c1.7.82 3.97 1.77 6.41 1.93h.38c1.28 0 2.26-.41 3.09-1.3a21.6 21.6 0 0 1 1.59-1.65c.35-.34.68-.65 1-1-.01 0-.01 0 0 0 .84-.87.84-1.74-.01-2.57zm-13.56-22.24c.1-.6.67-1 1.28-.9 2.6.44 4.98 1.68 6.86 3.56a12.68 12.68 0 0 1 3.56 6.86c.1.61-.3 1.19-.91 1.29l-.19.01c-.53 0-1-.37-1.1-.92a10.48 10.48 0 0 0-2.94-5.67 10.43 10.43 0 0 0-5.67-2.94c-.6-.1-1-.69-.9-1.29zm17.84 10.47l-.19.02c-.53 0-1-.38-1.09-.92a18.63 18.63 0 0 0-5.24-10.11 18.68 18.68 0 0 0-10.1-5.24 1.1 1.1 0 1 1 .36-2.19c4.3.74 8.2 2.76 11.3 5.87 3.11 3.1 5.14 7.01 5.87 11.3.1.6-.3 1.18-.9 1.27z"/></defs><g><g transform="translate(-1462 -829)"><use fill="#fff" xlink:href="#lju4a"/></g></g></svg>